<?xml version="1.0" encoding="UTF-8"?><svg id="Layer_1" xmlns="http://www.w3.org/2000/svg" xmlns:xlink="http://www.w3.org/1999/xlink" viewBox="0 0 56.56 51.23"><defs><style>.cls-1{fill:url(#linear-gradient-2);}.cls-2{fill:#ffe48d;}.cls-3{fill:url(#linear-gradient-3);}.cls-4{fill:url(#linear-gradient);}.cls-5{fill:url(#linear-gradient-4);}</style><linearGradient id="linear-gradient" x1="31.54" y1="7.86" x2="44.85" y2="7.86" gradientTransform="translate(12.82 -21.75) rotate(37.78)" gradientUnits="userSpaceOnUse"><stop offset="0" stop-color="#041f35"/><stop offset="1" stop-color="#4b7daa"/></linearGradient><linearGradient id="linear-gradient-2" x1="21.31" y1="-.51" x2="14.13" y2="19.86" gradientTransform="translate(37.69 2.83) rotate(142.22)" xlink:href="#linear-gradient"/><linearGradient id="linear-gradient-3" x1="6.18" y1="6.68" x2="43.83" y2="44.55" gradientUnits="userSpaceOnUse"><stop offset="0" stop-color="#ffaf00"/><stop offset="1" stop-color="#ff8b00"/></linearGradient><linearGradient id="linear-gradient-4" x1="26.13" y1="7.99" x2="31.94" y2="29.91" gradientTransform="matrix(1,0,0,1,0,0)" xlink:href="#linear-gradient"/></defs><rect class="cls-4" x="35.7" y="-1.42" width="5" height="18.57" rx="2.5" ry="2.5" transform="translate(3.19 25.05) rotate(-37.78)"/><rect class="cls-1" x="15.86" y="-1.42" width="5" height="18.57" rx="2.5" ry="2.5" transform="translate(28.05 25.32) rotate(-142.22)"/><path class="cls-3" d="m29.69,16.25H4.71l4.48,27.84c.66,4.11,4.21,7.14,8.38,7.14h21.74c4.17,0,7.71-3.02,8.38-7.14l4.48-27.84h-22.46Z"/><rect class="cls-5" x="0" y="11.29" width="56.56" height="9.6" rx="4.8" ry="4.8"/><rect class="cls-2" x="26.86" y="27.43" width="2.83" height="12.42" rx="1.41" ry="1.41"/><rect class="cls-2" x="38.79" y="27.37" width="2.83" height="12.42" rx="1.41" ry="1.41" transform="translate(5.66 -5.8) rotate(8.88)"/><rect class="cls-2" x="14.94" y="27.37" width="2.83" height="12.42" rx="1.41" ry="1.41" transform="translate(37.7 64.24) rotate(171.12)"/></svg>