<?xml version="1.0" encoding="UTF-8"?><svg id="Layer_1" xmlns="http://www.w3.org/2000/svg" xmlns:xlink="http://www.w3.org/1999/xlink" viewBox="0 0 55.97 55.97"><defs><style>.cls-1{fill:url(#linear-gradient-2);}.cls-2{fill:url(#linear-gradient-5);}.cls-3{fill:url(#linear-gradient-3);}.cls-4{fill:url(#linear-gradient);}.cls-5{fill:url(#linear-gradient-4);}</style><linearGradient id="linear-gradient" x1="9.94" y1="1.18" x2="41.18" y2="68.25" gradientUnits="userSpaceOnUse"><stop offset="0" stop-color="#041f35"/><stop offset="1" stop-color="#4b7daa"/></linearGradient><linearGradient id="linear-gradient-2" x1="23.43" y1="9.84" x2="45.86" y2="58.04" xlink:href="#linear-gradient"/><linearGradient id="linear-gradient-3" x1="37.31" y1="43.12" x2="18.89" y2="-7.19" xlink:href="#linear-gradient"/><linearGradient id="linear-gradient-4" x1="28.91" y1="46.2" x2="10.49" y2="-4.11" xlink:href="#linear-gradient"/><linearGradient id="linear-gradient-5" x1="17.66" y1="26.99" x2="36.4" y2="26.99" gradientUnits="userSpaceOnUse"><stop offset="0" stop-color="#ffaf00"/><stop offset="1" stop-color="#ff8b00"/></linearGradient></defs><path class="cls-4" d="m6.4,27.98c0-11.92,9.66-21.58,21.58-21.58,1.74,0,3.42.21,5.04.6l2.11-6.07C32.14.14,28.96-.17,25.66.1,11.65,1.24.56,12.84.02,26.88c-.46,11.95,6.59,22.31,16.8,26.76l2.11-6.07c-7.4-3.42-12.53-10.91-12.53-19.59Z"/><path class="cls-1" d="m35.14.93l-2.11,6.07c9.86,2.36,17.09,11.48,16.51,22.2-.6,10.96-9.55,19.83-20.51,20.34-3.61.17-7.04-.56-10.08-1.97l-2.11,6.07c3.97,1.73,8.42,2.57,13.1,2.25,13.9-.94,25.11-12.21,25.99-26.11.87-13.77-8.23-25.56-20.77-28.87Z"/><path class="cls-3" d="m39.73,49.09c.09-.05.19-.11.28-.16.26-.15.51-.3.76-.45.13-.08.25-.16.38-.24.22-.14.43-.28.64-.43.14-.1.28-.19.41-.29.2-.15.4-.3.59-.45.14-.11.27-.21.4-.32.21-.17.41-.34.62-.52.11-.1.23-.19.34-.29.31-.28.61-.56.91-.86,0,0,0,0,0,0,0,0,0,0,.01-.01.28-.28.55-.56.81-.85.13-.14.25-.29.37-.43.13-.15.27-.31.4-.46.15-.19.3-.37.44-.56.09-.12.19-.24.28-.36.16-.21.3-.42.45-.63.08-.11.15-.22.23-.33.15-.22.29-.44.43-.66.07-.11.14-.22.21-.33.13-.22.26-.44.38-.66.07-.12.14-.24.21-.37.11-.21.22-.42.33-.64.07-.14.14-.29.21-.43.09-.19.18-.39.27-.59.07-.17.15-.34.22-.51.07-.18.14-.35.21-.53.08-.2.15-.39.22-.59.06-.15.11-.31.16-.47.07-.22.15-.45.22-.67.04-.14.08-.28.12-.41.07-.24.14-.49.2-.73.03-.13.06-.26.09-.39.06-.25.12-.51.17-.76.03-.13.05-.27.07-.4.05-.25.09-.5.13-.76.02-.15.04-.31.06-.46.03-.23.06-.47.08-.7.02-.21.03-.42.05-.62.01-.18.03-.37.04-.55.02-.4.03-.81.03-1.21,0-.37,0-.74-.03-1.1,0-.09-.01-.18-.02-.28-.02-.28-.03-.57-.06-.85,0-.1-.02-.2-.03-.3-.03-.28-.06-.55-.1-.83-.01-.1-.03-.2-.05-.3-.04-.27-.09-.55-.14-.82-.02-.1-.04-.2-.06-.29-.05-.27-.11-.54-.18-.81-.02-.1-.05-.2-.07-.29-.07-.27-.14-.54-.22-.8-.03-.1-.05-.19-.08-.29-.08-.27-.17-.54-.26-.81-.03-.09-.06-.17-.09-.26-.12-.34-.25-.68-.38-1.01-.05-.12-.1-.24-.16-.36-.09-.21-.18-.42-.27-.63-.08-.18-.17-.37-.26-.55-.07-.14-.13-.27-.2-.41-.1-.2-.21-.4-.32-.59-.06-.11-.12-.22-.19-.33-.12-.21-.24-.41-.36-.62-.05-.09-.11-.17-.16-.26-.14-.22-.28-.44-.43-.66,0,0,0,0,0-.01-.34-.51-.71-1.01-1.1-1.5-.03-.03-.05-.07-.08-.1-.15-.19-.31-.38-.47-.57-.08-.09-.16-.19-.24-.28-.15-.17-.31-.35-.47-.52-.09-.1-.18-.2-.28-.29-.11-.12-.22-.23-.33-.35-.06-.06-.12-.12-.18-.18-.01-.01-.02-.02-.04-.03C36.78,2.83,24.59,1.73,15.37,7.39l10.05,20.75-7.56,21.78c3.08,1.43,6.51,2.23,10.13,2.23,3.83,0,7.46-.9,10.68-2.49.02-.01.05-.02.07-.03.34-.17.67-.34,1-.53Z"/><path class="cls-5" d="m3.83,27.98c0,9.72,5.75,18.1,14.03,21.93L33.63,4.5c-1.81-.43-3.7-.67-5.64-.67C14.64,3.83,3.83,14.64,3.83,27.98Z"/><path class="cls-2" d="m33.6,27.72c.31.18.61.35.88.57.48.38.9.8,1.15,1.38.21.48.32.98.3,1.5-.02.45-.1.89-.22,1.32-.2.68-.46,1.33-.88,1.91-.37.52-.84.92-1.42,1.21-.6.3-1.23.44-1.88.51-.45.05-.9.04-1.35.02-.56-.02-1.11-.11-1.65-.2-.07-.01-.15,0-.23-.02-.31-.05-.31-.05-.38.25-.26,1.04-.53,2.08-.79,3.12-.03.1-.06.13-.17.1-.62-.17-1.25-.33-1.88-.48-.11-.03-.12-.06-.09-.17.27-1.07.53-2.14.8-3.21.04-.15,0-.19-.14-.22-.46-.11-.92-.23-1.38-.36-.12-.03-.17-.01-.2.12-.19.78-.39,1.56-.58,2.34-.08.3-.15.61-.23.91-.02.09-.05.14-.17.1-.62-.17-1.25-.32-1.87-.47-.1-.02-.13-.07-.1-.17.18-.7.35-1.41.53-2.12.1-.39.19-.79.3-1.18.03-.11,0-.15-.11-.18-.85-.21-1.7-.42-2.56-.63-.51-.13-1.03-.26-1.54-.39-.09-.02-.1-.05-.06-.13.33-.75.66-1.51.99-2.27.03-.06.04-.09.13-.06.5.13,1.01.25,1.51.38.43.12.86-.17.96-.58.3-1.2.58-2.4.89-3.6.5-1.95.98-3.9,1.46-5.85.16-.64-.11-1.14-.74-1.36-.45-.16-.9-.26-1.36-.35-.04,0-.08-.03-.12-.04-.29-.09-.29-.09-.22-.38.15-.6.3-1.2.45-1.8.03-.14.09-.18.23-.14,1.11.28,2.21.56,3.32.84.24.06.48.1.71.17.12.04.14-.02.17-.11.25-1.03.51-2.05.77-3.08.02-.1.01-.23.09-.28.07-.04.18.04.27.06.54.14,1.09.25,1.63.42.22.07.22.06.16.28-.17.68-.33,1.37-.52,2.05-.1.36-.17.73-.27,1.08-.02.07,0,.07.04.1.05.03.1.02.16.03.47.12.96.19,1.42.35.09.03.1-.04.12-.11.15-.6.3-1.2.45-1.79.12-.46.24-.93.35-1.39.03-.11.06-.14.17-.11.63.16,1.26.32,1.89.48.09.02.12.06.09.16-.14.51-.28,1.02-.4,1.54-.14.57-.27,1.14-.41,1.71-.03.13,0,.17.11.21.86.3,1.68.66,2.43,1.18.7.48,1.27,1.07,1.56,1.87.18.5.24,1.01.19,1.55-.05.51-.15,1-.34,1.47-.43,1.04-1.22,1.65-2.29,1.94-.04.01-.08.02-.14.04Zm-4.8,5.31c.4,0,.8-.04,1.19-.15.98-.29,1.39-.89,1.5-1.77.09-.72-.23-1.31-.78-1.77-.71-.61-1.58-.92-2.45-1.19-.71-.22-1.43-.38-2.15-.54-.09-.02-.12-.01-.14.08-.08.33-.16.65-.24.98-.3,1.18-.59,2.37-.9,3.55-.03.11.02.11.07.12.3.07.59.16.88.23.58.14,1.16.29,1.76.37.42.05.83.09,1.25.09Zm.9-7.04c.31,0,.61,0,.92-.08.72-.17,1.25-.56,1.46-1.29.2-.71.09-1.37-.45-1.91-.34-.34-.75-.58-1.18-.77-.88-.4-1.83-.58-2.76-.8-.14-.03-.11.09-.12.13-.11.44-.21.89-.32,1.34-.23.91-.44,1.83-.7,2.73-.02.06,0,.08.06.1.19.04.37.1.56.15.83.21,1.67.42,2.54.41Z"/></svg>