<?xml version="1.0" encoding="UTF-8"?><svg id="Layer_1" xmlns="http://www.w3.org/2000/svg" xmlns:xlink="http://www.w3.org/1999/xlink" viewBox="0 0 51.88 55.01"><defs><style>.cls-1{fill:url(#linear-gradient-2);}.cls-2{fill:url(#linear-gradient-3);opacity:.1;}.cls-3{fill:url(#linear-gradient);}.cls-4{fill:#fff67c;}</style><linearGradient id="linear-gradient" x1="25.07" y1="-3.9" x2="46.17" y2="61.45" gradientUnits="userSpaceOnUse"><stop offset="0" stop-color="#041f35"/><stop offset="1" stop-color="#4b7daa"/></linearGradient><linearGradient id="linear-gradient-2" x1="29.02" y1="15.13" x2="10.3" y2="53.79" gradientUnits="userSpaceOnUse"><stop offset="0" stop-color="#ffaf00"/><stop offset="1" stop-color="#ff8b00"/></linearGradient><linearGradient id="linear-gradient-3" x1="43.13" y1="33.41" x2="31" y2="12.41" gradientUnits="userSpaceOnUse"><stop offset=".34" stop-color="#9b5cff"/><stop offset=".47" stop-color="#856eff"/><stop offset=".63" stop-color="#737dff"/><stop offset=".8" stop-color="#6986ff"/><stop offset="1" stop-color="#6689ff"/></linearGradient></defs><path class="cls-3" d="m45.41,0h-23.48c-3.58,0-6.48,2.9-6.48,6.48v33.18c0,1.7,1.86,2.74,3.31,1.86l4.66-2.85c.7-.43,1.58-.43,2.27,0l4.14,2.53c2.35,1.44,5.31,1.44,7.66,0l4.14-2.53c.7-.43,1.58-.43,2.27,0l4.66,2.85c1.45.89,3.31-.16,3.31-1.86V6.48c0-3.58-2.9-6.48-6.48-6.48Z"/><path class="cls-1" d="m33.53,7.7H7.25C3.24,7.7,0,10.94,0,14.94v37.13c0,1.9,2.08,3.07,3.71,2.08l5.21-3.19c.78-.48,1.76-.48,2.54,0l4.63,2.84c2.63,1.61,5.94,1.61,8.57,0l4.63-2.84c.78-.48,1.76-.48,2.54,0l5.21,3.19c1.62.99,3.71-.17,3.71-2.08V14.94c0-4-3.24-7.25-7.25-7.25Z"/><path class="cls-2" d="m43.37,13.57c0-4-3.24-7.25-7.25-7.25H15.46c0,.05,0,.1,0,.15v1.22h18.08c4,0,7.25,3.24,7.25,7.25v24.25l.87-.53c.53-.32,1.16-.4,1.73-.24V13.57Z"/><rect class="cls-4" x="7.55" y="20.24" width="25.67" height="3.87" rx="1.94" ry="1.94"/><rect class="cls-4" x="7.55" y="29.42" width="25.67" height="3.87" rx="1.94" ry="1.94"/><rect class="cls-4" x="7.55" y="38.59" width="15.01" height="3.87" rx="1.94" ry="1.94"/></svg>