<?xml version="1.0" encoding="UTF-8"?><svg id="Layer_1" xmlns="http://www.w3.org/2000/svg" xmlns:xlink="http://www.w3.org/1999/xlink" viewBox="0 0 51.53 59.32"><defs><style>.cls-1{fill:url(#linear-gradient-2);}.cls-2{fill:url(#linear-gradient-6);}.cls-3{fill:url(#linear-gradient-5);}.cls-4{fill:url(#linear-gradient-7);}.cls-5{fill:url(#linear-gradient-3);}.cls-6{fill:url(#linear-gradient);}.cls-7{fill:#fff67c;}.cls-8{fill:url(#linear-gradient-4);}</style><linearGradient id="linear-gradient" x1="34.63" y1="11.1" x2="53.71" y2="60.99" gradientUnits="userSpaceOnUse"><stop offset="0" stop-color="#041f35"/><stop offset="1" stop-color="#4b7daa"/></linearGradient><linearGradient id="linear-gradient-2" x1="-.21" y1="11.01" x2="17.15" y2="56.41" xlink:href="#linear-gradient"/><linearGradient id="linear-gradient-3" x1="15.86" y1="1.15" x2="36.94" y2="56.29" xlink:href="#linear-gradient"/><linearGradient id="linear-gradient-4" x1="2.93" y1="21.13" x2="16.41" y2="51.33" xlink:href="#linear-gradient"/><linearGradient id="linear-gradient-5" x1="14.78" y1="6.64" x2="41.36" y2="58.76" xlink:href="#linear-gradient"/><linearGradient id="linear-gradient-6" x1="37.99" y1="13.78" x2="49.97" y2="45.13" xlink:href="#linear-gradient"/><linearGradient id="linear-gradient-7" x1="17.91" y1="18.2" x2="33.39" y2="45.3" gradientUnits="userSpaceOnUse"><stop offset="0" stop-color="#ffaf00"/><stop offset="1" stop-color="#ff8b00"/></linearGradient></defs><rect class="cls-6" x="42.76" y="10.07" width="1.78" height="49.25" rx=".89" ry=".89"/><rect class="cls-1" x="7.11" y="10.07" width="1.78" height="44.81" rx=".89" ry=".89"/><rect class="cls-5" x="24.94" y="0" width="1.78" height="54.45" rx=".89" ry=".89"/><rect class="cls-8" y="18.61" width="15.74" height="27.19" rx="3.51" ry="3.51"/><rect class="cls-3" x="17.96" y="5.57" width="15.74" height="45.48" rx="4.54" ry="4.54"/><rect class="cls-2" x="35.78" y="15.01" width="15.74" height="27.19" rx="3.51" ry="3.51"/><circle class="cls-4" cx="25.76" cy="31.94" r="14.53"/><path class="cls-7" d="m31.23,35.25c0,1.24-.4,2.25-1.19,3.03-.66.65-1.5,1.09-2.52,1.32-.39.09-.67.43-.67.83v.13c0,.47-.38.85-.85.85h-.3c-.47,0-.85-.38-.85-.85v-.1c0-.41-.29-.75-.69-.83-1.12-.23-2.02-.71-2.7-1.43-.61-.64-.99-1.43-1.15-2.37-.09-.52.32-.99.84-.99h.79c.39,0,.74.26.82.64.12.52.39.95.82,1.28.59.46,1.33.69,2.23.69.82,0,1.51-.2,2.09-.6s.86-.93.86-1.57c0-.2-.03-.39-.1-.56-.07-.17-.15-.32-.24-.44-.09-.12-.23-.24-.43-.36s-.36-.21-.5-.27c-.14-.07-.36-.14-.65-.23-.29-.08-.51-.14-.67-.18-.15-.04-.41-.1-.76-.18-.61-.14-1.08-.25-1.42-.34-.34-.09-.77-.25-1.28-.48-.52-.23-.91-.47-1.19-.74-.27-.27-.52-.64-.73-1.1-.21-.47-.32-1-.32-1.61,0-1.18.37-2.13,1.12-2.87.61-.6,1.41-1,2.39-1.21.4-.08.68-.43.68-.83h0c0-.47.38-.85.85-.85h.34c.47,0,.85.38.85.85v.03c0,.4.28.74.66.83.98.23,1.77.68,2.35,1.34.52.58.84,1.29.99,2.13.09.52-.31,1-.84,1h-.74c-.39,0-.73-.27-.82-.65-.11-.45-.35-.81-.71-1.1-.52-.42-1.18-.63-1.99-.63s-1.41.17-1.92.5c-.51.33-.77.78-.77,1.36,0,.19.03.36.1.52s.14.3.23.41c.09.11.23.23.41.34.19.11.35.2.48.26.14.06.34.14.63.23.28.09.5.15.65.19.15.04.4.1.74.18.34.08.6.14.79.19.19.05.45.12.78.22s.59.19.79.27c.2.08.43.19.71.33.28.14.5.28.66.43.17.14.34.32.53.53.19.21.34.44.44.67.1.24.19.51.26.82.07.31.1.64.1.99Z"/></svg>