<?xml version="1.0" encoding="UTF-8"?><svg xmlns="http://www.w3.org/2000/svg" xmlns:xlink="http://www.w3.org/1999/xlink" viewBox="0 0 59.78 52.71"><defs><style>.cls-1{isolation:isolate;}.cls-2{fill:url(#linear-gradient-6);}.cls-2,.cls-3,.cls-4{opacity:.55;}.cls-3{fill:url(#linear-gradient-4);}.cls-5{fill:url(#linear-gradient-5);}.cls-4{fill:url(#linear-gradient-2);}.cls-6{fill:url(#linear-gradient-3);}.cls-7{fill:url(#linear-gradient);}.cls-8{fill:#ffe9ad;mix-blend-mode:hard-light;}</style><linearGradient id="linear-gradient" x1="44.97" y1="50.35" x2="48.9" y2="30.85" gradientUnits="userSpaceOnUse"><stop offset="0" stop-color="#ffaf00"/><stop offset="1" stop-color="#ff8b00"/></linearGradient><linearGradient id="linear-gradient-2" x1="42.99" y1="56.55" x2="46.58" y2="38.74" gradientUnits="userSpaceOnUse"><stop offset="0" stop-color="#fbb033"/><stop offset=".53" stop-color="#fdcc3f"/><stop offset="1" stop-color="#ffe248"/></linearGradient><linearGradient id="linear-gradient-3" x1="15.52" y1="50.19" x2="19.41" y2="30.9" xlink:href="#linear-gradient"/><linearGradient id="linear-gradient-4" x1="13.12" y1="56.55" x2="16.71" y2="38.74" xlink:href="#linear-gradient-2"/><linearGradient id="linear-gradient-5" x1="30.22" y1="25.85" x2="34.13" y2="6.48" xlink:href="#linear-gradient"/><linearGradient id="linear-gradient-6" x1="28.06" y1="32.16" x2="31.65" y2="14.35" xlink:href="#linear-gradient-2"/></defs><g class="cls-1"><g id="Layer_1"><path class="cls-7" d="m58.61,52.71h-29.16l5.9-21.94c.39-1.46,1.55-2.45,2.86-2.45h13.24c1.31,0,2.47.99,2.86,2.45l5.42,20.17c.24.88-.33,1.77-1.12,1.77Z"/><path class="cls-4" d="m41.07,28.94c.04-.37.16-.62.3-.62h6.92c.14,0,.26.25.3.62l2.67,23.77h-12.86"/><path class="cls-6" d="m30.33,52.71H1.17c-.79,0-1.35-.89-1.12-1.77l5.42-20.17c.39-1.46,1.55-2.45,2.86-2.45h13.24c1.31,0,2.47.99,2.86,2.45l5.9,21.94Z"/><path class="cls-3" d="m11.2,28.94c.04-.37.16-.62.3-.62h6.92c.14,0,.26.25.3.62l2.67,23.77h-12.86"/><path class="cls-5" d="m44.3,28.33H15.48c-.48,0-.82-.54-.68-1.07l5.61-20.87c.39-1.46,1.55-2.45,2.86-2.45h13.24c1.31,0,2.47.99,2.86,2.45l5.61,20.87c.14.53-.2,1.07-.68,1.07Z"/><path class="cls-2" d="m26.13,4.56c.04-.37.16-.62.3-.62h6.92c.14,0,.26.25.3.62l2.67,23.77h-12.86"/><path class="cls-8" d="m40.06,3.89l2.74.95-2.74.95c-.53.18-.95.6-1.14,1.14l-.95,2.75-.95-2.75c-.19-.53-.61-.95-1.14-1.14l-2.74-.95,2.74-.95c.53-.18.95-.6,1.14-1.14l.95-2.75.95,2.75c.19.53.61.95,1.14,1.14Z"/><path class="cls-8" d="m38.94,4.39l1.27.44-1.27.44c-.25.09-.44.28-.53.53l-.44,1.28-.44-1.28c-.09-.25-.28-.44-.53-.53l-1.27-.44,1.27-.44c.25-.09.44-.28.53-.53l.44-1.28.44,1.28c.09.25.28.44.53.53Z"/><path class="cls-8" d="m32.39,10.38l.74.26-.74.26c-.15.05-.26.16-.31.31l-.26.75-.26-.75c-.05-.14-.16-.26-.31-.31l-.74-.26.74-.26c.15-.05.26-.16.31-.31l.26-.75.26.75c.05.14.16.26.31.31Z"/><path class="cls-8" d="m50.58,27.09l1.33-.34-.84,1.09c-.16.21-.22.49-.16.75l.34,1.34-1.09-.84c-.21-.16-.49-.22-.75-.16l-1.33.34.84-1.09c.16-.21.22-.49.16-.75l-.34-1.34,1.09.84c.21.16.49.22.75.16Z"/><path class="cls-8" d="m12.79,29.34l.48,2.1-1.68-1.35c-.33-.26-.76-.36-1.17-.27l-2.11.48,1.36-1.68c.26-.33.36-.76.27-1.17l-.48-2.1,1.68,1.35c.33.26.76.36,1.17.27l2.11-.48-1.36,1.68c-.26.33-.36.76-.27,1.17Z"/></g></g></svg>