<?xml version="1.0" encoding="UTF-8"?><svg id="Layer_1" xmlns="http://www.w3.org/2000/svg" xmlns:xlink="http://www.w3.org/1999/xlink" viewBox="0 0 54.57 54.52"><defs><style>.cls-1{fill:url(#linear-gradient-2);}.cls-2{fill:url(#linear-gradient-6);}.cls-3{fill:url(#linear-gradient-5);}.cls-4{fill:url(#linear-gradient-3);}.cls-5{fill:url(#linear-gradient);}.cls-6{fill:url(#linear-gradient-4);}</style><linearGradient id="linear-gradient" x1="26.93" y1="46.91" x2="26.93" y2="26.8" gradientTransform="translate(63.32 9.45) rotate(90)" gradientUnits="userSpaceOnUse"><stop offset="0" stop-color="#ffaf00"/><stop offset="1" stop-color="#ff8b00"/></linearGradient><linearGradient id="linear-gradient-2" x1="10.85" y1="46.91" x2="10.85" y2="26.8" gradientTransform="translate(47.23 25.54) rotate(90)" xlink:href="#linear-gradient"/><linearGradient id="linear-gradient-3" x1="43.72" y1="46.91" x2="43.72" y2="26.8" gradientTransform="translate(80.1 -7.33) rotate(90)" xlink:href="#linear-gradient"/><linearGradient id="linear-gradient-4" x1="27.21" y1="9.96" x2="27.38" y2="40.12" gradientUnits="userSpaceOnUse"><stop offset="0" stop-color="#041f35"/><stop offset="1" stop-color="#4b7daa"/></linearGradient><linearGradient id="linear-gradient-5" x1="23.6" y1="16.2" x2="30.97" y2="16.2" gradientTransform="matrix(1,0,0,1,0,0)" xlink:href="#linear-gradient"/><linearGradient id="linear-gradient-6" x1="27.21" y1="44.42" x2="27.75" y2="57.9" xlink:href="#linear-gradient-4"/></defs><rect class="cls-5" x="15.65" y="31.96" width="22.56" height="8.84" transform="translate(-9.45 63.32) rotate(-90)"/><rect class="cls-1" x="-.43" y="31.96" width="22.56" height="8.84" transform="translate(-25.54 47.23) rotate(-90)"/><rect class="cls-4" x="32.44" y="31.96" width="22.56" height="8.84" transform="translate(7.33 80.1) rotate(-90)"/><path class="cls-6" d="m50.81,26.5H3.76c-3.51,0-5.1-4.38-2.4-6.63L23.5,1.37c2.19-1.83,5.37-1.83,7.56,0l22.15,18.5c2.69,2.25,1.1,6.63-2.4,6.63Z"/><circle class="cls-3" cx="27.28" cy="16.2" r="3.69"/><path class="cls-2" d="m.49,45.69h53.59v.8c0,4.44-3.6,8.04-8.04,8.04H8.53c-4.44,0-8.04-3.6-8.04-8.04v-.8H.49Z"/></svg>